<mxfile host="app.diagrams.net" modified="2022-09-20T09:31:23.484Z" agent="5.0 (Windows NT 6.3; Win64; x64) AppleWebKit/537.36 (KHTML, like Gecko) Chrome/105.0.0.0 Safari/537.36" etag="wW0IzBjJMC8sUIy1kzwb" version="20.3.3" type="github">
  <diagram id="Ed8boLnHnijK1wKDId39" name="Page-1">
    <mxGraphModel dx="868" dy="482" grid="0" gridSize="10" guides="1" tooltips="1" connect="1" arrows="1" fold="1" page="1" pageScale="1" pageWidth="850" pageHeight="1100" math="0" shadow="0">
      <root>
        <mxCell id="0" />
        <mxCell id="1" parent="0" />
        <mxCell id="Q_q4lqlpqD65z0d_PAJl-3" value="" style="edgeStyle=orthogonalEdgeStyle;rounded=0;orthogonalLoop=1;jettySize=auto;html=1;fontFamily=Times New Roman;" edge="1" parent="1" source="Q_q4lqlpqD65z0d_PAJl-1" target="Q_q4lqlpqD65z0d_PAJl-2">
          <mxGeometry relative="1" as="geometry" />
        </mxCell>
        <mxCell id="Q_q4lqlpqD65z0d_PAJl-1" value="START" style="ellipse;whiteSpace=wrap;html=1;fontFamily=Times New Roman;" vertex="1" parent="1">
          <mxGeometry x="354.75" y="23" width="124.5" height="68" as="geometry" />
        </mxCell>
        <mxCell id="Q_q4lqlpqD65z0d_PAJl-5" value="" style="edgeStyle=orthogonalEdgeStyle;rounded=0;orthogonalLoop=1;jettySize=auto;html=1;fontFamily=Times New Roman;" edge="1" parent="1" source="Q_q4lqlpqD65z0d_PAJl-2" target="Q_q4lqlpqD65z0d_PAJl-4">
          <mxGeometry relative="1" as="geometry" />
        </mxCell>
        <mxCell id="Q_q4lqlpqD65z0d_PAJl-7" value="" style="edgeStyle=orthogonalEdgeStyle;rounded=0;orthogonalLoop=1;jettySize=auto;html=1;fontFamily=Times New Roman;" edge="1" parent="1" source="Q_q4lqlpqD65z0d_PAJl-2" target="Q_q4lqlpqD65z0d_PAJl-6">
          <mxGeometry relative="1" as="geometry" />
        </mxCell>
        <mxCell id="Q_q4lqlpqD65z0d_PAJl-2" value="PARKING / UNPARKING" style="rhombus;whiteSpace=wrap;html=1;fontFamily=Times New Roman;" vertex="1" parent="1">
          <mxGeometry x="320.5" y="118" width="193" height="79" as="geometry" />
        </mxCell>
        <mxCell id="Q_q4lqlpqD65z0d_PAJl-9" value="" style="edgeStyle=orthogonalEdgeStyle;rounded=0;orthogonalLoop=1;jettySize=auto;html=1;fontFamily=Times New Roman;" edge="1" parent="1" source="Q_q4lqlpqD65z0d_PAJl-4" target="Q_q4lqlpqD65z0d_PAJl-8">
          <mxGeometry relative="1" as="geometry" />
        </mxCell>
        <mxCell id="Q_q4lqlpqD65z0d_PAJl-4" value="CAR AVALABILITY" style="rhombus;whiteSpace=wrap;html=1;fontFamily=Times New Roman;" vertex="1" parent="1">
          <mxGeometry x="139" y="203" width="160" height="113" as="geometry" />
        </mxCell>
        <mxCell id="Q_q4lqlpqD65z0d_PAJl-11" value="" style="edgeStyle=orthogonalEdgeStyle;rounded=0;orthogonalLoop=1;jettySize=auto;html=1;fontFamily=Times New Roman;" edge="1" parent="1" source="Q_q4lqlpqD65z0d_PAJl-6">
          <mxGeometry relative="1" as="geometry">
            <mxPoint x="624" y="366" as="targetPoint" />
          </mxGeometry>
        </mxCell>
        <mxCell id="Q_q4lqlpqD65z0d_PAJl-6" value="CAR AVALABILITY" style="rhombus;whiteSpace=wrap;html=1;fontFamily=Times New Roman;" vertex="1" parent="1">
          <mxGeometry x="547.5" y="206" width="153" height="122" as="geometry" />
        </mxCell>
        <mxCell id="Q_q4lqlpqD65z0d_PAJl-13" value="" style="edgeStyle=orthogonalEdgeStyle;rounded=0;orthogonalLoop=1;jettySize=auto;html=1;fontFamily=Times New Roman;" edge="1" parent="1" source="Q_q4lqlpqD65z0d_PAJl-8" target="Q_q4lqlpqD65z0d_PAJl-12">
          <mxGeometry relative="1" as="geometry" />
        </mxCell>
        <mxCell id="Q_q4lqlpqD65z0d_PAJl-8" value="SLOT SELECTION AUTOMATICALLY&amp;nbsp;&lt;br&gt;USING IR SENSORS" style="rhombus;whiteSpace=wrap;html=1;fontFamily=Times New Roman;" vertex="1" parent="1">
          <mxGeometry x="142.5" y="355.5" width="153" height="105" as="geometry" />
        </mxCell>
        <mxCell id="Q_q4lqlpqD65z0d_PAJl-15" value="" style="edgeStyle=orthogonalEdgeStyle;rounded=0;orthogonalLoop=1;jettySize=auto;html=1;fontFamily=Times New Roman;" edge="1" parent="1" source="Q_q4lqlpqD65z0d_PAJl-27" target="Q_q4lqlpqD65z0d_PAJl-14">
          <mxGeometry relative="1" as="geometry">
            <mxPoint x="627" y="469" as="sourcePoint" />
          </mxGeometry>
        </mxCell>
        <mxCell id="Q_q4lqlpqD65z0d_PAJl-22" value="" style="edgeStyle=orthogonalEdgeStyle;rounded=0;orthogonalLoop=1;jettySize=auto;html=1;fontFamily=Times New Roman;" edge="1" parent="1" source="Q_q4lqlpqD65z0d_PAJl-12" target="Q_q4lqlpqD65z0d_PAJl-21">
          <mxGeometry relative="1" as="geometry" />
        </mxCell>
        <mxCell id="Q_q4lqlpqD65z0d_PAJl-12" value="PARKING AS PER AVALABILITY" style="whiteSpace=wrap;html=1;fontFamily=Times New Roman;" vertex="1" parent="1">
          <mxGeometry x="159" y="529" width="120" height="60" as="geometry" />
        </mxCell>
        <mxCell id="Q_q4lqlpqD65z0d_PAJl-19" value="" style="edgeStyle=orthogonalEdgeStyle;rounded=0;orthogonalLoop=1;jettySize=auto;html=1;fontFamily=Times New Roman;" edge="1" parent="1" source="Q_q4lqlpqD65z0d_PAJl-14" target="Q_q4lqlpqD65z0d_PAJl-18">
          <mxGeometry relative="1" as="geometry" />
        </mxCell>
        <mxCell id="Q_q4lqlpqD65z0d_PAJl-14" value="UNPARKING AS PER INPUT GIVEN" style="whiteSpace=wrap;html=1;fontFamily=Times New Roman;" vertex="1" parent="1">
          <mxGeometry x="559" y="529" width="120" height="60" as="geometry" />
        </mxCell>
        <mxCell id="Q_q4lqlpqD65z0d_PAJl-18" value="" style="ellipse;whiteSpace=wrap;html=1;fontFamily=Times New Roman;" vertex="1" parent="1">
          <mxGeometry x="345" y="640" width="120" height="60" as="geometry" />
        </mxCell>
        <mxCell id="Q_q4lqlpqD65z0d_PAJl-21" value="STOP" style="ellipse;whiteSpace=wrap;html=1;fontFamily=Times New Roman;" vertex="1" parent="1">
          <mxGeometry x="345" y="640" width="120" height="60" as="geometry" />
        </mxCell>
        <mxCell id="Q_q4lqlpqD65z0d_PAJl-23" value="PARKING" style="text;html=1;align=center;verticalAlign=middle;resizable=0;points=[];autosize=1;strokeColor=none;fillColor=none;fontFamily=Times New Roman;" vertex="1" parent="1">
          <mxGeometry x="233" y="137" width="72" height="26" as="geometry" />
        </mxCell>
        <mxCell id="Q_q4lqlpqD65z0d_PAJl-24" value="UNPARKING" style="text;html=1;align=center;verticalAlign=middle;resizable=0;points=[];autosize=1;strokeColor=none;fillColor=none;fontFamily=Times New Roman;" vertex="1" parent="1">
          <mxGeometry x="524" y="135" width="90" height="26" as="geometry" />
        </mxCell>
        <mxCell id="Q_q4lqlpqD65z0d_PAJl-25" value="YES" style="text;html=1;align=center;verticalAlign=middle;resizable=0;points=[];autosize=1;strokeColor=none;fillColor=none;fontFamily=Times New Roman;" vertex="1" parent="1">
          <mxGeometry x="213" y="318" width="39" height="26" as="geometry" />
        </mxCell>
        <mxCell id="Q_q4lqlpqD65z0d_PAJl-26" value="NO" style="text;html=1;align=center;verticalAlign=middle;resizable=0;points=[];autosize=1;strokeColor=none;fillColor=none;fontFamily=Times New Roman;" vertex="1" parent="1">
          <mxGeometry x="623" y="329.5" width="36" height="26" as="geometry" />
        </mxCell>
        <mxCell id="Q_q4lqlpqD65z0d_PAJl-27" value="TAKING INPUT FOR &lt;br&gt;SLOT SELECTION&amp;nbsp;" style="shape=parallelogram;perimeter=parallelogramPerimeter;whiteSpace=wrap;html=1;fixedSize=1;fontFamily=Times New Roman;" vertex="1" parent="1">
          <mxGeometry x="536.5" y="374" width="165" height="94" as="geometry" />
        </mxCell>
      </root>
    </mxGraphModel>
  </diagram>
</mxfile>
